<mxfile host="drawio-plugin" modified="2021-07-01T20:50:29.097Z" agent="5.0 (Macintosh; Intel Mac OS X 10_16_0) AppleWebKit/537.36 (KHTML, like Gecko) Chrome/84.0.4147.105 Safari/537.36" etag="t8ro7nlv_o0lNphkY1zs" version="14.7.4" type="embed"><diagram id="XjBvma8TKEidSXA-A0vw" name="Pagina-2"><mxGraphModel dx="2808" dy="-958" grid="1" gridSize="10" guides="1" tooltips="1" connect="1" arrows="1" fold="1" page="1" pageScale="1" pageWidth="827" pageHeight="1169" math="0" shadow="0"><root><mxCell id="zuPwHXy1TFyjWQxAL-yT-0"/><mxCell id="zuPwHXy1TFyjWQxAL-yT-1" parent="zuPwHXy1TFyjWQxAL-yT-0"/><mxCell id="WFDf0e7nfd22DvibQq_O-15" style="edgeStyle=orthogonalEdgeStyle;rounded=0;orthogonalLoop=1;jettySize=auto;html=1;entryX=0.5;entryY=0;entryDx=0;entryDy=0;" parent="zuPwHXy1TFyjWQxAL-yT-1" source="zuPwHXy1TFyjWQxAL-yT-4" target="UZ8g9i1Q12Po_Xgt0YLo-0" edge="1"><mxGeometry relative="1" as="geometry"/></mxCell><mxCell id="zuPwHXy1TFyjWQxAL-yT-4" value="Game" style="swimlane;fontStyle=1;align=center;verticalAlign=top;childLayout=stackLayout;horizontal=1;startSize=26;horizontalStack=0;resizeParent=1;resizeParentMax=0;resizeLast=0;collapsible=1;marginBottom=0;fillColor=none;" parent="zuPwHXy1TFyjWQxAL-yT-1" vertex="1"><mxGeometry x="269" y="1460" width="410" height="236" as="geometry"/></mxCell><mxCell id="zuPwHXy1TFyjWQxAL-yT-5" value="~ players : ArrayList&lt;Player&gt;&#10;- table : Table&#10;- currPlayer : Player&#10;- currPopeSpace : int&#10;&#10;" style="text;strokeColor=none;fillColor=none;align=left;verticalAlign=top;spacingLeft=4;spacingRight=4;overflow=hidden;rotatable=0;points=[[0,0.5],[1,0.5]];portConstraint=eastwest;" parent="zuPwHXy1TFyjWQxAL-yT-4" vertex="1"><mxGeometry y="26" width="410" height="74" as="geometry"/></mxCell><mxCell id="zuPwHXy1TFyjWQxAL-yT-6" value="" style="line;strokeWidth=1;fillColor=none;align=left;verticalAlign=middle;spacingTop=-1;spacingLeft=3;spacingRight=3;rotatable=0;labelPosition=right;points=[];portConstraint=eastwest;" parent="zuPwHXy1TFyjWQxAL-yT-4" vertex="1"><mxGeometry y="100" width="410" height="8" as="geometry"/></mxCell><mxCell id="zuPwHXy1TFyjWQxAL-yT-7" value="+ changePlayer(Player original, Player newPlayer): void&#10;+ notify(Request request) : void&#10;+ endGame() : void&#10;+ fpAdvancement(int discardedSteps, int playerSteps) : void&#10;+ notifyAllPlayers(Update update) : void&#10;+ createNewGameUpdate : Update" style="text;strokeColor=none;fillColor=none;align=left;verticalAlign=top;spacingLeft=4;spacingRight=4;overflow=hidden;rotatable=0;points=[[0,0.5],[1,0.5]];portConstraint=eastwest;" parent="zuPwHXy1TFyjWQxAL-yT-4" vertex="1"><mxGeometry y="108" width="410" height="128" as="geometry"/></mxCell><mxCell id="zuPwHXy1TFyjWQxAL-yT-15" value="SinglePlayerGame" style="swimlane;fontStyle=1;align=center;verticalAlign=top;childLayout=stackLayout;horizontal=1;startSize=26;horizontalStack=0;resizeParent=1;resizeParentMax=0;resizeLast=0;collapsible=1;marginBottom=0;fillColor=none;" parent="zuPwHXy1TFyjWQxAL-yT-1" vertex="1"><mxGeometry x="824.5" y="1460" width="410" height="276" as="geometry"/></mxCell><mxCell id="zuPwHXy1TFyjWQxAL-yT-16" value="- lorenzoPath faithPath&#10;- tokenList : ArrayList&lt;Token&gt;&#10;- player : Player&#10;- table : Table&#10;- currPopeSpace : int&#10;- turnStates : ArrayList&lt;TurnState&gt;&#10;" style="text;strokeColor=none;fillColor=none;align=left;verticalAlign=top;spacingLeft=4;spacingRight=4;overflow=hidden;rotatable=0;points=[[0,0.5],[1,0.5]];portConstraint=eastwest;" parent="zuPwHXy1TFyjWQxAL-yT-15" vertex="1"><mxGeometry y="26" width="410" height="114" as="geometry"/></mxCell><mxCell id="zuPwHXy1TFyjWQxAL-yT-17" value="" style="line;strokeWidth=1;fillColor=none;align=left;verticalAlign=middle;spacingTop=-1;spacingLeft=3;spacingRight=3;rotatable=0;labelPosition=right;points=[];portConstraint=eastwest;" parent="zuPwHXy1TFyjWQxAL-yT-15" vertex="1"><mxGeometry y="140" width="410" height="8" as="geometry"/></mxCell><mxCell id="zuPwHXy1TFyjWQxAL-yT-18" value="- drawToken() : Token&#10;+ notify(Request req) : void&#10;+ fpAdvancement(int discardedSteps, int playerSteps)&#10;+ lorenzoWins() : void&#10;+ playerWins() : void" style="text;strokeColor=none;fillColor=none;align=left;verticalAlign=top;spacingLeft=4;spacingRight=4;overflow=hidden;rotatable=0;points=[[0,0.5],[1,0.5]];portConstraint=eastwest;" parent="zuPwHXy1TFyjWQxAL-yT-15" vertex="1"><mxGeometry y="148" width="410" height="128" as="geometry"/></mxCell><mxCell id="zuPwHXy1TFyjWQxAL-yT-23" value="&lt;p style=&quot;margin: 0px ; margin-top: 4px ; text-align: center&quot;&gt;&lt;i&gt;&amp;lt;&amp;lt;Interface&amp;gt;&amp;gt;&lt;/i&gt;&lt;br&gt;&lt;b&gt;Token&lt;/b&gt;&lt;/p&gt;&lt;hr size=&quot;1&quot;&gt;&lt;p style=&quot;margin: 0px ; margin-left: 4px&quot;&gt;- activateEffect () : void&lt;br&gt;&lt;/p&gt;" style="verticalAlign=top;align=left;overflow=fill;fontSize=12;fontFamily=Helvetica;html=1;" parent="zuPwHXy1TFyjWQxAL-yT-1" vertex="1"><mxGeometry x="886" y="1850" width="287" height="70" as="geometry"/></mxCell><mxCell id="zuPwHXy1TFyjWQxAL-yT-24" value="DiscardCards" style="swimlane;fontStyle=1;align=center;verticalAlign=top;childLayout=stackLayout;horizontal=1;startSize=26;horizontalStack=0;resizeParent=1;resizeParentMax=0;resizeLast=0;collapsible=1;marginBottom=0;" parent="zuPwHXy1TFyjWQxAL-yT-1" vertex="1"><mxGeometry x="746" y="2040" width="160" height="60" as="geometry"/></mxCell><mxCell id="zuPwHXy1TFyjWQxAL-yT-25" value="- color : String" style="text;strokeColor=none;fillColor=none;align=left;verticalAlign=top;spacingLeft=4;spacingRight=4;overflow=hidden;rotatable=0;points=[[0,0.5],[1,0.5]];portConstraint=eastwest;" parent="zuPwHXy1TFyjWQxAL-yT-24" vertex="1"><mxGeometry y="26" width="160" height="26" as="geometry"/></mxCell><mxCell id="zuPwHXy1TFyjWQxAL-yT-26" value="" style="line;strokeWidth=1;fillColor=none;align=left;verticalAlign=middle;spacingTop=-1;spacingLeft=3;spacingRight=3;rotatable=0;labelPosition=right;points=[];portConstraint=eastwest;" parent="zuPwHXy1TFyjWQxAL-yT-24" vertex="1"><mxGeometry y="52" width="160" height="8" as="geometry"/></mxCell><mxCell id="zuPwHXy1TFyjWQxAL-yT-27" value="" style="endArrow=block;dashed=1;endFill=0;endSize=12;html=1;exitX=0.5;exitY=0;exitDx=0;exitDy=0;entryX=0.558;entryY=0.997;entryDx=0;entryDy=0;entryPerimeter=0;" parent="zuPwHXy1TFyjWQxAL-yT-1" source="zuPwHXy1TFyjWQxAL-yT-24" target="zuPwHXy1TFyjWQxAL-yT-23" edge="1"><mxGeometry width="160" relative="1" as="geometry"><mxPoint x="726" y="2270" as="sourcePoint"/><mxPoint x="1049" y="2060" as="targetPoint"/><Array as="points"><mxPoint x="826" y="2010"/><mxPoint x="939" y="2010"/><mxPoint x="1046" y="2010"/></Array></mxGeometry></mxCell><mxCell id="zuPwHXy1TFyjWQxAL-yT-28" value="Move2" style="swimlane;fontStyle=1;align=center;verticalAlign=top;childLayout=stackLayout;horizontal=1;startSize=26;horizontalStack=0;resizeParent=1;resizeParentMax=0;resizeLast=0;collapsible=1;marginBottom=0;" parent="zuPwHXy1TFyjWQxAL-yT-1" vertex="1"><mxGeometry x="966" y="2040" width="160" height="34" as="geometry"/></mxCell><mxCell id="zuPwHXy1TFyjWQxAL-yT-29" value="" style="line;strokeWidth=1;fillColor=none;align=left;verticalAlign=middle;spacingTop=-1;spacingLeft=3;spacingRight=3;rotatable=0;labelPosition=right;points=[];portConstraint=eastwest;" parent="zuPwHXy1TFyjWQxAL-yT-28" vertex="1"><mxGeometry y="26" width="160" height="8" as="geometry"/></mxCell><mxCell id="zuPwHXy1TFyjWQxAL-yT-30" value="Move1" style="swimlane;fontStyle=1;align=center;verticalAlign=top;childLayout=stackLayout;horizontal=1;startSize=26;horizontalStack=0;resizeParent=1;resizeParentMax=0;resizeLast=0;collapsible=1;marginBottom=0;" parent="zuPwHXy1TFyjWQxAL-yT-1" vertex="1"><mxGeometry x="1186" y="2040" width="160" height="34" as="geometry"/></mxCell><mxCell id="zuPwHXy1TFyjWQxAL-yT-31" value="" style="line;strokeWidth=1;fillColor=none;align=left;verticalAlign=middle;spacingTop=-1;spacingLeft=3;spacingRight=3;rotatable=0;labelPosition=right;points=[];portConstraint=eastwest;" parent="zuPwHXy1TFyjWQxAL-yT-30" vertex="1"><mxGeometry y="26" width="160" height="8" as="geometry"/></mxCell><mxCell id="zuPwHXy1TFyjWQxAL-yT-32" value="" style="endArrow=block;dashed=1;endFill=0;endSize=12;html=1;exitX=0.5;exitY=0;exitDx=0;exitDy=0;entryX=0.558;entryY=0.997;entryDx=0;entryDy=0;entryPerimeter=0;" parent="zuPwHXy1TFyjWQxAL-yT-1" source="zuPwHXy1TFyjWQxAL-yT-28" target="zuPwHXy1TFyjWQxAL-yT-23" edge="1"><mxGeometry width="160" relative="1" as="geometry"><mxPoint x="1036" y="2310" as="sourcePoint"/><mxPoint x="1046" y="2060" as="targetPoint"/></mxGeometry></mxCell><mxCell id="zuPwHXy1TFyjWQxAL-yT-33" value="" style="endArrow=block;dashed=1;endFill=0;endSize=12;html=1;exitX=0.5;exitY=0;exitDx=0;exitDy=0;entryX=0.558;entryY=0.996;entryDx=0;entryDy=0;entryPerimeter=0;" parent="zuPwHXy1TFyjWQxAL-yT-1" source="zuPwHXy1TFyjWQxAL-yT-30" target="zuPwHXy1TFyjWQxAL-yT-23" edge="1"><mxGeometry width="160" relative="1" as="geometry"><mxPoint x="1296" y="2290" as="sourcePoint"/><mxPoint x="1045" y="2064" as="targetPoint"/><Array as="points"><mxPoint x="1266" y="2010"/><mxPoint x="1046" y="2010"/></Array></mxGeometry></mxCell><mxCell id="zuPwHXy1TFyjWQxAL-yT-34" value="Use" style="endArrow=open;endSize=12;dashed=1;html=1;entryX=0.5;entryY=0;entryDx=0;entryDy=0;" parent="zuPwHXy1TFyjWQxAL-yT-1" source="zuPwHXy1TFyjWQxAL-yT-18" target="zuPwHXy1TFyjWQxAL-yT-23" edge="1"><mxGeometry width="160" relative="1" as="geometry"><mxPoint x="310" y="2040" as="sourcePoint"/><mxPoint x="470" y="2040" as="targetPoint"/></mxGeometry></mxCell><mxCell id="QdaKhmfzMMFKIb9w_ULD-0" value="enum&#10;Turn state&#10;" style="swimlane;fontStyle=0;childLayout=stackLayout;horizontal=1;startSize=40;fillColor=none;horizontalStack=0;resizeParent=1;resizeParentMax=0;resizeLast=0;collapsible=1;marginBottom=0;" parent="zuPwHXy1TFyjWQxAL-yT-1" vertex="1"><mxGeometry x="-176" y="1440" width="280" height="130" as="geometry"/></mxCell><mxCell id="QdaKhmfzMMFKIb9w_ULD-2" value="- turnState: INITIAL, PLAY_LEADER_CARD, &#10;GET_FROM_MARKET, BUY_DEV_CARD, &#10;PRODUCE, MOVE_RESOURCE, &#10;DISCARD_LEADER_CARD,&#10;END_TURN" style="text;strokeColor=none;fillColor=none;align=left;verticalAlign=top;spacingLeft=4;spacingRight=4;overflow=hidden;rotatable=0;points=[[0,0.5],[1,0.5]];portConstraint=eastwest;" parent="QdaKhmfzMMFKIb9w_ULD-0" vertex="1"><mxGeometry y="40" width="280" height="90" as="geometry"/></mxCell><mxCell id="UZ8g9i1Q12Po_Xgt0YLo-0" value="&lt;&lt;interface&gt;&gt;&#10;Request" style="swimlane;fontStyle=1;align=center;verticalAlign=top;childLayout=stackLayout;horizontal=1;startSize=40;horizontalStack=0;resizeParent=1;resizeParentMax=0;resizeLast=0;collapsible=1;marginBottom=0;" parent="zuPwHXy1TFyjWQxAL-yT-1" vertex="1"><mxGeometry x="249" y="2002" width="360" height="160" as="geometry"><mxRectangle x="182" y="1730" width="110" height="30" as="alternateBounds"/></mxGeometry></mxCell><mxCell id="UZ8g9i1Q12Po_Xgt0YLo-1" value="" style="line;strokeWidth=1;fillColor=none;align=left;verticalAlign=middle;spacingTop=-1;spacingLeft=3;spacingRight=3;rotatable=0;labelPosition=right;points=[];portConstraint=eastwest;" parent="UZ8g9i1Q12Po_Xgt0YLo-0" vertex="1"><mxGeometry y="40" width="360" height="30" as="geometry"/></mxCell><mxCell id="UZ8g9i1Q12Po_Xgt0YLo-2" value="+ validRequest(turnstate) : boolean&#10;+ handle(player) : void&#10;+ canBePlayed(player) : boolean&#10;+ getClassName() : String&#10;+ createUpdate() : Update&#10;&#10;&#10;" style="text;strokeColor=none;fillColor=none;align=left;verticalAlign=top;spacingLeft=4;spacingRight=4;overflow=hidden;rotatable=0;points=[[0,0.5],[1,0.5]];portConstraint=eastwest;" parent="UZ8g9i1Q12Po_Xgt0YLo-0" vertex="1"><mxGeometry y="70" width="360" height="90" as="geometry"/></mxCell><mxCell id="UZ8g9i1Q12Po_Xgt0YLo-13" style="edgeStyle=orthogonalEdgeStyle;rounded=0;orthogonalLoop=1;jettySize=auto;html=1;entryX=0.505;entryY=1.001;entryDx=0;entryDy=0;entryPerimeter=0;exitX=0.5;exitY=0;exitDx=0;exitDy=0;" parent="zuPwHXy1TFyjWQxAL-yT-1" source="CXDdSFIX0ZnYIhV8G9Mw-33" target="UZ8g9i1Q12Po_Xgt0YLo-2" edge="1"><mxGeometry relative="1" as="geometry"><Array as="points"><mxPoint x="-36" y="2300"/><mxPoint x="431" y="2300"/></Array><mxPoint x="-437" y="2200" as="targetPoint"/></mxGeometry></mxCell><mxCell id="UZ8g9i1Q12Po_Xgt0YLo-6" value="MarketRequest" style="swimlane;fontStyle=1;align=center;verticalAlign=top;childLayout=stackLayout;horizontal=1;startSize=26;horizontalStack=0;resizeParent=1;resizeParentMax=0;resizeLast=0;collapsible=1;marginBottom=0;" parent="zuPwHXy1TFyjWQxAL-yT-1" vertex="1"><mxGeometry x="-551" y="2400" width="288" height="124" as="geometry"/></mxCell><mxCell id="UZ8g9i1Q12Po_Xgt0YLo-8" value="- dimension : Dimension&#10;- number : Int&#10;- marketResources : ArrayList&lt;MarketResource&gt;&#10;- myFPSteps : int&#10;- discardedSteps : int" style="text;strokeColor=none;fillColor=none;align=left;verticalAlign=top;spacingLeft=4;spacingRight=4;overflow=hidden;rotatable=0;points=[[0,0.5],[1,0.5]];portConstraint=eastwest;" parent="UZ8g9i1Q12Po_Xgt0YLo-6" vertex="1"><mxGeometry y="26" width="288" height="74" as="geometry"/></mxCell><mxCell id="UZ8g9i1Q12Po_Xgt0YLo-7" value="" style="line;strokeWidth=1;fillColor=none;align=left;verticalAlign=middle;spacingTop=-1;spacingLeft=3;spacingRight=3;rotatable=0;labelPosition=right;points=[];portConstraint=eastwest;" parent="UZ8g9i1Q12Po_Xgt0YLo-6" vertex="1"><mxGeometry y="100" width="288" height="24" as="geometry"/></mxCell><mxCell id="UZ8g9i1Q12Po_Xgt0YLo-14" style="edgeStyle=orthogonalEdgeStyle;rounded=0;orthogonalLoop=1;jettySize=auto;html=1;exitX=0.5;exitY=0;exitDx=0;exitDy=0;entryX=0.505;entryY=1.004;entryDx=0;entryDy=0;entryPerimeter=0;" parent="zuPwHXy1TFyjWQxAL-yT-1" source="UZ8g9i1Q12Po_Xgt0YLo-6" target="UZ8g9i1Q12Po_Xgt0YLo-2" edge="1"><mxGeometry relative="1" as="geometry"><mxPoint x="-1321" y="2270" as="sourcePoint"/><mxPoint x="319" y="2140" as="targetPoint"/><Array as="points"><mxPoint x="-407" y="2300"/><mxPoint x="431" y="2300"/></Array></mxGeometry></mxCell><mxCell id="7PWRgVyLpjwVJqehHupk-3" style="edgeStyle=orthogonalEdgeStyle;rounded=0;orthogonalLoop=1;jettySize=auto;html=1;entryX=0.505;entryY=0.997;entryDx=0;entryDy=0;entryPerimeter=0;exitX=0.5;exitY=0;exitDx=0;exitDy=0;" parent="zuPwHXy1TFyjWQxAL-yT-1" source="7PWRgVyLpjwVJqehHupk-1" target="UZ8g9i1Q12Po_Xgt0YLo-2" edge="1"><mxGeometry relative="1" as="geometry"><Array as="points"><mxPoint x="649" y="2300"/><mxPoint x="431" y="2300"/></Array><mxPoint x="-437" y="2196" as="targetPoint"/></mxGeometry></mxCell><mxCell id="7PWRgVyLpjwVJqehHupk-1" value="MoveRequest" style="swimlane;fontStyle=1;align=center;verticalAlign=top;childLayout=stackLayout;horizontal=1;startSize=26;horizontalStack=0;resizeParent=1;resizeParentMax=0;resizeLast=0;collapsible=1;marginBottom=0;" parent="zuPwHXy1TFyjWQxAL-yT-1" vertex="1"><mxGeometry x="509" y="2421" width="280" height="66" as="geometry"/></mxCell><mxCell id="CXDdSFIX0ZnYIhV8G9Mw-23" value="- toMoveResources : ArrayList&amp;lt;toMoveResource&amp;gt;" style="text;html=1;align=left;verticalAlign=middle;resizable=0;points=[];autosize=1;strokeColor=none;" parent="7PWRgVyLpjwVJqehHupk-1" vertex="1"><mxGeometry y="26" width="280" height="20" as="geometry"/></mxCell><mxCell id="7PWRgVyLpjwVJqehHupk-2" value="" style="line;strokeWidth=1;fillColor=none;align=left;verticalAlign=middle;spacingTop=-1;spacingLeft=3;spacingRight=3;rotatable=0;labelPosition=right;points=[];portConstraint=eastwest;" parent="7PWRgVyLpjwVJqehHupk-1" vertex="1"><mxGeometry y="46" width="280" height="20" as="geometry"/></mxCell><mxCell id="7PWRgVyLpjwVJqehHupk-6" style="edgeStyle=orthogonalEdgeStyle;rounded=0;orthogonalLoop=1;jettySize=auto;html=1;entryX=0.505;entryY=0.999;entryDx=0;entryDy=0;entryPerimeter=0;exitX=0.5;exitY=0;exitDx=0;exitDy=0;" parent="zuPwHXy1TFyjWQxAL-yT-1" source="7PWRgVyLpjwVJqehHupk-4" target="UZ8g9i1Q12Po_Xgt0YLo-2" edge="1"><mxGeometry relative="1" as="geometry"><Array as="points"><mxPoint x="949" y="2300"/><mxPoint x="431" y="2300"/></Array><mxPoint x="-437" y="2196" as="targetPoint"/></mxGeometry></mxCell><mxCell id="7PWRgVyLpjwVJqehHupk-4" value="PlayLeaderRequest" style="swimlane;fontStyle=1;align=center;verticalAlign=top;childLayout=stackLayout;horizontal=1;startSize=40;horizontalStack=0;resizeParent=1;resizeParentMax=0;resizeLast=0;collapsible=1;marginBottom=0;" parent="zuPwHXy1TFyjWQxAL-yT-1" vertex="1"><mxGeometry x="863.5" y="2421" width="170" height="74" as="geometry"/></mxCell><mxCell id="CXDdSFIX0ZnYIhV8G9Mw-24" value="- cardID : String" style="text;html=1;align=left;verticalAlign=middle;resizable=0;points=[];autosize=1;strokeColor=none;" parent="7PWRgVyLpjwVJqehHupk-4" vertex="1"><mxGeometry y="40" width="170" height="20" as="geometry"/></mxCell><mxCell id="7PWRgVyLpjwVJqehHupk-5" value="" style="line;strokeWidth=1;fillColor=none;align=left;verticalAlign=middle;spacingTop=-1;spacingLeft=3;spacingRight=3;rotatable=0;labelPosition=right;points=[];portConstraint=eastwest;" parent="7PWRgVyLpjwVJqehHupk-4" vertex="1"><mxGeometry y="60" width="170" height="14" as="geometry"/></mxCell><mxCell id="CXDdSFIX0ZnYIhV8G9Mw-10" style="edgeStyle=orthogonalEdgeStyle;rounded=0;orthogonalLoop=1;jettySize=auto;html=1;entryX=0.505;entryY=1;entryDx=0;entryDy=0;entryPerimeter=0;exitX=0.5;exitY=0;exitDx=0;exitDy=0;" parent="zuPwHXy1TFyjWQxAL-yT-1" source="CXDdSFIX0ZnYIhV8G9Mw-6" target="UZ8g9i1Q12Po_Xgt0YLo-2" edge="1"><mxGeometry relative="1" as="geometry"><mxPoint x="-436" y="2207" as="targetPoint"/><Array as="points"><mxPoint x="1219" y="2300"/><mxPoint x="431" y="2300"/></Array></mxGeometry></mxCell><mxCell id="CXDdSFIX0ZnYIhV8G9Mw-6" value="DiscardLeaderRequest" style="swimlane;fontStyle=1;align=center;verticalAlign=top;childLayout=stackLayout;horizontal=1;startSize=29;horizontalStack=0;resizeParent=1;resizeParentMax=0;resizeLast=0;collapsible=1;marginBottom=0;" parent="zuPwHXy1TFyjWQxAL-yT-1" vertex="1"><mxGeometry x="1109" y="2423" width="219" height="86" as="geometry"/></mxCell><mxCell id="CXDdSFIX0ZnYIhV8G9Mw-9" value="- myFPSteps : int&lt;br&gt;- cardID : String" style="text;html=1;align=left;verticalAlign=middle;resizable=0;points=[];autosize=1;strokeColor=none;" parent="CXDdSFIX0ZnYIhV8G9Mw-6" vertex="1"><mxGeometry y="29" width="219" height="30" as="geometry"/></mxCell><mxCell id="CXDdSFIX0ZnYIhV8G9Mw-7" value="" style="line;strokeWidth=1;fillColor=none;align=left;verticalAlign=middle;spacingTop=-1;spacingLeft=3;spacingRight=3;rotatable=0;labelPosition=right;points=[];portConstraint=eastwest;" parent="CXDdSFIX0ZnYIhV8G9Mw-6" vertex="1"><mxGeometry y="59" width="219" height="27" as="geometry"/></mxCell><mxCell id="CXDdSFIX0ZnYIhV8G9Mw-11" value="EndTurnRequest" style="swimlane;fontStyle=1;align=center;verticalAlign=top;childLayout=stackLayout;horizontal=1;startSize=26;horizontalStack=0;resizeParent=1;resizeParentMax=0;resizeLast=0;collapsible=1;marginBottom=0;" parent="zuPwHXy1TFyjWQxAL-yT-1" vertex="1"><mxGeometry x="-71" y="2082" width="160" height="70" as="geometry"/></mxCell><mxCell id="WFDf0e7nfd22DvibQq_O-1" value="- playerID : String&#10;- gameID : int" style="text;strokeColor=none;fillColor=none;align=left;verticalAlign=top;spacingLeft=4;spacingRight=4;overflow=hidden;rotatable=0;points=[[0,0.5],[1,0.5]];portConstraint=eastwest;" parent="CXDdSFIX0ZnYIhV8G9Mw-11" vertex="1"><mxGeometry y="26" width="160" height="44" as="geometry"/></mxCell><mxCell id="CXDdSFIX0ZnYIhV8G9Mw-13" value="" style="line;strokeWidth=1;fillColor=none;align=left;verticalAlign=middle;spacingTop=-1;spacingLeft=3;spacingRight=3;rotatable=0;labelPosition=right;points=[];portConstraint=eastwest;" parent="CXDdSFIX0ZnYIhV8G9Mw-11" vertex="1"><mxGeometry y="70" width="160" as="geometry"/></mxCell><mxCell id="CXDdSFIX0ZnYIhV8G9Mw-14" style="edgeStyle=orthogonalEdgeStyle;rounded=0;orthogonalLoop=1;jettySize=auto;html=1;exitX=1;exitY=0.5;exitDx=0;exitDy=0;" parent="zuPwHXy1TFyjWQxAL-yT-1" source="CXDdSFIX0ZnYIhV8G9Mw-11" target="UZ8g9i1Q12Po_Xgt0YLo-2" edge="1"><mxGeometry relative="1" as="geometry"><mxPoint x="-305.9411764705883" y="1860" as="sourcePoint"/><mxPoint x="-721" y="2010" as="targetPoint"/><Array as="points"/></mxGeometry></mxCell><mxCell id="CXDdSFIX0ZnYIhV8G9Mw-18" style="edgeStyle=orthogonalEdgeStyle;rounded=0;orthogonalLoop=1;jettySize=auto;html=1;entryX=0.5;entryY=1;entryDx=0;entryDy=0;" parent="zuPwHXy1TFyjWQxAL-yT-1" source="CXDdSFIX0ZnYIhV8G9Mw-15" target="UZ8g9i1Q12Po_Xgt0YLo-6" edge="1"><mxGeometry relative="1" as="geometry"/></mxCell><mxCell id="CXDdSFIX0ZnYIhV8G9Mw-15" value="MarketResource" style="swimlane;fontStyle=1;align=center;verticalAlign=top;childLayout=stackLayout;horizontal=1;startSize=26;horizontalStack=0;resizeParent=1;resizeParentMax=0;resizeLast=0;collapsible=1;marginBottom=0;" parent="zuPwHXy1TFyjWQxAL-yT-1" vertex="1"><mxGeometry x="-487" y="2590" width="160" height="88" as="geometry"/></mxCell><mxCell id="CXDdSFIX0ZnYIhV8G9Mw-16" value="- resource : Resource&#10;- level : int" style="text;strokeColor=none;fillColor=none;align=left;verticalAlign=top;spacingLeft=4;spacingRight=4;overflow=hidden;rotatable=0;points=[[0,0.5],[1,0.5]];portConstraint=eastwest;" parent="CXDdSFIX0ZnYIhV8G9Mw-15" vertex="1"><mxGeometry y="26" width="160" height="54" as="geometry"/></mxCell><mxCell id="CXDdSFIX0ZnYIhV8G9Mw-17" value="" style="line;strokeWidth=1;fillColor=none;align=left;verticalAlign=middle;spacingTop=-1;spacingLeft=3;spacingRight=3;rotatable=0;labelPosition=right;points=[];portConstraint=eastwest;" parent="CXDdSFIX0ZnYIhV8G9Mw-15" vertex="1"><mxGeometry y="80" width="160" height="8" as="geometry"/></mxCell><mxCell id="CXDdSFIX0ZnYIhV8G9Mw-22" style="edgeStyle=orthogonalEdgeStyle;rounded=0;orthogonalLoop=1;jettySize=auto;html=1;entryX=0.5;entryY=1;entryDx=0;entryDy=0;" parent="zuPwHXy1TFyjWQxAL-yT-1" source="CXDdSFIX0ZnYIhV8G9Mw-19" target="7PWRgVyLpjwVJqehHupk-1" edge="1"><mxGeometry relative="1" as="geometry"/></mxCell><mxCell id="CXDdSFIX0ZnYIhV8G9Mw-19" value="toMoveResource" style="swimlane;fontStyle=1;align=center;verticalAlign=top;childLayout=stackLayout;horizontal=1;startSize=26;horizontalStack=0;resizeParent=1;resizeParentMax=0;resizeLast=0;collapsible=1;marginBottom=0;" parent="zuPwHXy1TFyjWQxAL-yT-1" vertex="1"><mxGeometry x="569" y="2584" width="160" height="88" as="geometry"/></mxCell><mxCell id="CXDdSFIX0ZnYIhV8G9Mw-20" value="- resource : Resource&#10;- ogLevel : int&#10;- finLevel : int" style="text;strokeColor=none;fillColor=none;align=left;verticalAlign=top;spacingLeft=4;spacingRight=4;overflow=hidden;rotatable=0;points=[[0,0.5],[1,0.5]];portConstraint=eastwest;" parent="CXDdSFIX0ZnYIhV8G9Mw-19" vertex="1"><mxGeometry y="26" width="160" height="54" as="geometry"/></mxCell><mxCell id="CXDdSFIX0ZnYIhV8G9Mw-21" value="" style="line;strokeWidth=1;fillColor=none;align=left;verticalAlign=middle;spacingTop=-1;spacingLeft=3;spacingRight=3;rotatable=0;labelPosition=right;points=[];portConstraint=eastwest;" parent="CXDdSFIX0ZnYIhV8G9Mw-19" vertex="1"><mxGeometry y="80" width="160" height="8" as="geometry"/></mxCell><mxCell id="CXDdSFIX0ZnYIhV8G9Mw-32" style="edgeStyle=orthogonalEdgeStyle;rounded=0;orthogonalLoop=1;jettySize=auto;html=1;entryX=0.506;entryY=1.002;entryDx=0;entryDy=0;entryPerimeter=0;" parent="zuPwHXy1TFyjWQxAL-yT-1" source="CXDdSFIX0ZnYIhV8G9Mw-25" target="UZ8g9i1Q12Po_Xgt0YLo-2" edge="1"><mxGeometry relative="1" as="geometry"><mxPoint x="-438" y="2220" as="targetPoint"/><Array as="points"><mxPoint x="326" y="2300"/><mxPoint x="431" y="2300"/></Array></mxGeometry></mxCell><mxCell id="CXDdSFIX0ZnYIhV8G9Mw-25" value="ProduceRequest" style="swimlane;fontStyle=1;align=center;verticalAlign=top;childLayout=stackLayout;horizontal=1;startSize=26;horizontalStack=0;resizeParent=1;resizeParentMax=0;resizeLast=0;collapsible=1;marginBottom=0;" parent="zuPwHXy1TFyjWQxAL-yT-1" vertex="1"><mxGeometry x="182" y="2421" width="288" height="90" as="geometry"/></mxCell><mxCell id="CXDdSFIX0ZnYIhV8G9Mw-26" value="- productions : ArrayList&lt;Production&gt;&#10;- playerSteps : int&#10;" style="text;strokeColor=none;fillColor=none;align=left;verticalAlign=top;spacingLeft=4;spacingRight=4;overflow=hidden;rotatable=0;points=[[0,0.5],[1,0.5]];portConstraint=eastwest;" parent="CXDdSFIX0ZnYIhV8G9Mw-25" vertex="1"><mxGeometry y="26" width="288" height="44" as="geometry"/></mxCell><mxCell id="CXDdSFIX0ZnYIhV8G9Mw-27" value="" style="line;strokeWidth=1;fillColor=none;align=left;verticalAlign=middle;spacingTop=-1;spacingLeft=3;spacingRight=3;rotatable=0;labelPosition=right;points=[];portConstraint=eastwest;" parent="CXDdSFIX0ZnYIhV8G9Mw-25" vertex="1"><mxGeometry y="70" width="288" height="20" as="geometry"/></mxCell><mxCell id="CXDdSFIX0ZnYIhV8G9Mw-28" style="edgeStyle=orthogonalEdgeStyle;rounded=0;orthogonalLoop=1;jettySize=auto;html=1;entryX=0.5;entryY=1;entryDx=0;entryDy=0;" parent="zuPwHXy1TFyjWQxAL-yT-1" source="CXDdSFIX0ZnYIhV8G9Mw-29" target="CXDdSFIX0ZnYIhV8G9Mw-25" edge="1"><mxGeometry relative="1" as="geometry"/></mxCell><mxCell id="CXDdSFIX0ZnYIhV8G9Mw-40" style="edgeStyle=orthogonalEdgeStyle;rounded=0;orthogonalLoop=1;jettySize=auto;html=1;entryX=1;entryY=0.5;entryDx=0;entryDy=0;" parent="zuPwHXy1TFyjWQxAL-yT-1" source="CXDdSFIX0ZnYIhV8G9Mw-29" target="CXDdSFIX0ZnYIhV8G9Mw-37" edge="1"><mxGeometry relative="1" as="geometry"><mxPoint x="39" y="2655" as="targetPoint"/><Array as="points"><mxPoint x="119" y="2664"/><mxPoint x="119" y="2664"/></Array></mxGeometry></mxCell><mxCell id="CXDdSFIX0ZnYIhV8G9Mw-29" value="Production" style="swimlane;fontStyle=1;align=center;verticalAlign=top;childLayout=stackLayout;horizontal=1;startSize=26;horizontalStack=0;resizeParent=1;resizeParentMax=0;resizeLast=0;collapsible=1;marginBottom=0;" parent="zuPwHXy1TFyjWQxAL-yT-1" vertex="1"><mxGeometry x="196" y="2611" width="260" height="88" as="geometry"/></mxCell><mxCell id="CXDdSFIX0ZnYIhV8G9Mw-30" value="- cardID : String&#10;- resources : ArrayList&lt;MappedResources&gt;" style="text;strokeColor=none;fillColor=none;align=left;verticalAlign=top;spacingLeft=4;spacingRight=4;overflow=hidden;rotatable=0;points=[[0,0.5],[1,0.5]];portConstraint=eastwest;" parent="CXDdSFIX0ZnYIhV8G9Mw-29" vertex="1"><mxGeometry y="26" width="260" height="54" as="geometry"/></mxCell><mxCell id="CXDdSFIX0ZnYIhV8G9Mw-31" value="" style="line;strokeWidth=1;fillColor=none;align=left;verticalAlign=middle;spacingTop=-1;spacingLeft=3;spacingRight=3;rotatable=0;labelPosition=right;points=[];portConstraint=eastwest;" parent="CXDdSFIX0ZnYIhV8G9Mw-29" vertex="1"><mxGeometry y="80" width="260" height="8" as="geometry"/></mxCell><mxCell id="CXDdSFIX0ZnYIhV8G9Mw-33" value="BuyDevRequest&#10;" style="swimlane;fontStyle=1;align=center;verticalAlign=top;childLayout=stackLayout;horizontal=1;startSize=26;horizontalStack=0;resizeParent=1;resizeParentMax=0;resizeLast=0;collapsible=1;marginBottom=0;" parent="zuPwHXy1TFyjWQxAL-yT-1" vertex="1"><mxGeometry x="-171" y="2421" width="270" height="100" as="geometry"/></mxCell><mxCell id="CXDdSFIX0ZnYIhV8G9Mw-34" value="- cardID : String&lt;br&gt;- resources : ArrayList&amp;lt;MappedResource&amp;gt;&lt;br&gt;- slot : int" style="text;html=1;strokeColor=none;fillColor=none;align=left;verticalAlign=middle;whiteSpace=wrap;rounded=0;" parent="CXDdSFIX0ZnYIhV8G9Mw-33" vertex="1"><mxGeometry y="26" width="270" height="54" as="geometry"/></mxCell><mxCell id="CXDdSFIX0ZnYIhV8G9Mw-35" value="" style="line;strokeWidth=1;fillColor=none;align=left;verticalAlign=middle;spacingTop=-1;spacingLeft=3;spacingRight=3;rotatable=0;labelPosition=right;points=[];portConstraint=eastwest;" parent="CXDdSFIX0ZnYIhV8G9Mw-33" vertex="1"><mxGeometry y="80" width="270" height="20" as="geometry"/></mxCell><mxCell id="CXDdSFIX0ZnYIhV8G9Mw-36" value="MappedResource" style="swimlane;fontStyle=1;align=center;verticalAlign=top;childLayout=stackLayout;horizontal=1;startSize=26;horizontalStack=0;resizeParent=1;resizeParentMax=0;resizeLast=0;collapsible=1;marginBottom=0;" parent="zuPwHXy1TFyjWQxAL-yT-1" vertex="1"><mxGeometry x="-116" y="2611" width="160" height="88" as="geometry"/></mxCell><mxCell id="CXDdSFIX0ZnYIhV8G9Mw-37" value="- resource : Resource&#10;- place : String" style="text;strokeColor=none;fillColor=none;align=left;verticalAlign=top;spacingLeft=4;spacingRight=4;overflow=hidden;rotatable=0;points=[[0,0.5],[1,0.5]];portConstraint=eastwest;" parent="CXDdSFIX0ZnYIhV8G9Mw-36" vertex="1"><mxGeometry y="26" width="160" height="54" as="geometry"/></mxCell><mxCell id="CXDdSFIX0ZnYIhV8G9Mw-38" value="" style="line;strokeWidth=1;fillColor=none;align=left;verticalAlign=middle;spacingTop=-1;spacingLeft=3;spacingRight=3;rotatable=0;labelPosition=right;points=[];portConstraint=eastwest;" parent="CXDdSFIX0ZnYIhV8G9Mw-36" vertex="1"><mxGeometry y="80" width="160" height="8" as="geometry"/></mxCell><mxCell id="CXDdSFIX0ZnYIhV8G9Mw-39" value="" style="html=1;verticalAlign=bottom;endArrow=block;exitX=0.5;exitY=1;exitDx=0;exitDy=0;entryX=0.5;entryY=0;entryDx=0;entryDy=0;" parent="zuPwHXy1TFyjWQxAL-yT-1" source="CXDdSFIX0ZnYIhV8G9Mw-33" target="CXDdSFIX0ZnYIhV8G9Mw-36" edge="1"><mxGeometry width="80" relative="1" as="geometry"><mxPoint x="-151" y="2675" as="sourcePoint"/><mxPoint x="-71" y="2675" as="targetPoint"/></mxGeometry></mxCell><mxCell id="CXDdSFIX0ZnYIhV8G9Mw-41" style="edgeStyle=orthogonalEdgeStyle;rounded=0;orthogonalLoop=1;jettySize=auto;html=1;exitX=0.003;exitY=0.427;exitDx=0;exitDy=0;exitPerimeter=0;entryX=0.998;entryY=0.443;entryDx=0;entryDy=0;entryPerimeter=0;" parent="zuPwHXy1TFyjWQxAL-yT-1" source="zuPwHXy1TFyjWQxAL-yT-5" target="QdaKhmfzMMFKIb9w_ULD-2" edge="1"><mxGeometry relative="1" as="geometry"><mxPoint x="104" y="1520" as="targetPoint"/><Array as="points"><mxPoint x="270" y="1520"/></Array></mxGeometry></mxCell><mxCell id="CXDdSFIX0ZnYIhV8G9Mw-43" value="DefaultCreator" style="swimlane;fontStyle=1;align=center;verticalAlign=top;childLayout=stackLayout;horizontal=1;startSize=26;horizontalStack=0;resizeParent=1;resizeParentMax=0;resizeLast=0;collapsible=1;marginBottom=0;" parent="zuPwHXy1TFyjWQxAL-yT-1" vertex="1"><mxGeometry x="-176" y="1740" width="280" height="90" as="geometry"/></mxCell><mxCell id="CXDdSFIX0ZnYIhV8G9Mw-45" value="" style="line;strokeWidth=1;fillColor=none;align=left;verticalAlign=middle;spacingTop=-1;spacingLeft=3;spacingRight=3;rotatable=0;labelPosition=right;points=[];portConstraint=eastwest;" parent="CXDdSFIX0ZnYIhV8G9Mw-43" vertex="1"><mxGeometry y="26" width="280" height="8" as="geometry"/></mxCell><mxCell id="CXDdSFIX0ZnYIhV8G9Mw-46" value="+ produceDevCard() : ArrayList&lt;DevCard&gt;&#10;+ produceLeaderCard() : ArrayList&lt;LeadrCard&gt;" style="text;strokeColor=none;fillColor=none;align=left;verticalAlign=top;spacingLeft=4;spacingRight=4;overflow=hidden;rotatable=0;points=[[0,0.5],[1,0.5]];portConstraint=eastwest;" parent="CXDdSFIX0ZnYIhV8G9Mw-43" vertex="1"><mxGeometry y="34" width="280" height="56" as="geometry"/></mxCell><mxCell id="CXDdSFIX0ZnYIhV8G9Mw-48" value="" style="shape=folder;fontStyle=1;spacingTop=10;tabWidth=40;tabHeight=20;tabPosition=left;html=1;fillColor=none;" parent="zuPwHXy1TFyjWQxAL-yT-1" vertex="1"><mxGeometry x="1830" y="1570" width="1110" height="620" as="geometry"/></mxCell><mxCell id="CXDdSFIX0ZnYIhV8G9Mw-49" value="CONNECTION" style="text;align=center;fontStyle=1;verticalAlign=middle;spacingLeft=3;spacingRight=3;strokeColor=none;rotatable=0;points=[[0,0.5],[1,0.5]];portConstraint=eastwest;fillColor=none;fontSize=8;" parent="zuPwHXy1TFyjWQxAL-yT-1" vertex="1"><mxGeometry x="1830" y="1570" width="60" height="16" as="geometry"/></mxCell><mxCell id="CXDdSFIX0ZnYIhV8G9Mw-50" value="ClientHandler" style="swimlane;fontStyle=1;align=center;verticalAlign=top;childLayout=stackLayout;horizontal=1;startSize=26;horizontalStack=0;resizeParent=1;resizeParentMax=0;resizeLast=0;collapsible=1;marginBottom=0;fillColor=none;" parent="zuPwHXy1TFyjWQxAL-yT-1" vertex="1"><mxGeometry x="1930" y="1630" width="160" height="134" as="geometry"/></mxCell><mxCell id="CXDdSFIX0ZnYIhV8G9Mw-51" value="- socket : Socket&#10;- in : BufferReader&#10;- out : PrintWriter&#10;- games : ArrayList&lt;Game&gt;" style="text;strokeColor=none;fillColor=none;align=left;verticalAlign=top;spacingLeft=4;spacingRight=4;overflow=hidden;rotatable=0;points=[[0,0.5],[1,0.5]];portConstraint=eastwest;" parent="CXDdSFIX0ZnYIhV8G9Mw-50" vertex="1"><mxGeometry y="26" width="160" height="74" as="geometry"/></mxCell><mxCell id="CXDdSFIX0ZnYIhV8G9Mw-52" value="" style="line;strokeWidth=1;fillColor=none;align=left;verticalAlign=middle;spacingTop=-1;spacingLeft=3;spacingRight=3;rotatable=0;labelPosition=right;points=[];portConstraint=eastwest;" parent="CXDdSFIX0ZnYIhV8G9Mw-50" vertex="1"><mxGeometry y="100" width="160" height="8" as="geometry"/></mxCell><mxCell id="CXDdSFIX0ZnYIhV8G9Mw-53" value="+ run() : void" style="text;strokeColor=none;fillColor=none;align=left;verticalAlign=top;spacingLeft=4;spacingRight=4;overflow=hidden;rotatable=0;points=[[0,0.5],[1,0.5]];portConstraint=eastwest;" parent="CXDdSFIX0ZnYIhV8G9Mw-50" vertex="1"><mxGeometry y="108" width="160" height="26" as="geometry"/></mxCell><mxCell id="CXDdSFIX0ZnYIhV8G9Mw-54" value="ConvertableDeserializer" style="swimlane;fontStyle=1;align=center;verticalAlign=top;childLayout=stackLayout;horizontal=1;startSize=26;horizontalStack=0;resizeParent=1;resizeParentMax=0;resizeLast=0;collapsible=1;marginBottom=0;fillColor=none;" parent="zuPwHXy1TFyjWQxAL-yT-1" vertex="1"><mxGeometry x="2200" y="1630" width="600" height="120" as="geometry"/></mxCell><mxCell id="CXDdSFIX0ZnYIhV8G9Mw-55" value="- CLASSNAME : String&#10;" style="text;strokeColor=none;fillColor=none;align=left;verticalAlign=top;spacingLeft=4;spacingRight=4;overflow=hidden;rotatable=0;points=[[0,0.5],[1,0.5]];portConstraint=eastwest;" parent="CXDdSFIX0ZnYIhV8G9Mw-54" vertex="1"><mxGeometry y="26" width="600" height="34" as="geometry"/></mxCell><mxCell id="CXDdSFIX0ZnYIhV8G9Mw-56" value="" style="line;strokeWidth=1;fillColor=none;align=left;verticalAlign=middle;spacingTop=-1;spacingLeft=3;spacingRight=3;rotatable=0;labelPosition=right;points=[];portConstraint=eastwest;" parent="CXDdSFIX0ZnYIhV8G9Mw-54" vertex="1"><mxGeometry y="60" width="600" height="8" as="geometry"/></mxCell><mxCell id="CXDdSFIX0ZnYIhV8G9Mw-57" value="+ deserialize(JsonElement jsonelement, Type type, JsonDeserializationContext deserializationContext) : T&#10;+ getClassInstance(String className) : Class&lt;T&gt;" style="text;strokeColor=none;fillColor=none;align=left;verticalAlign=top;spacingLeft=4;spacingRight=4;overflow=hidden;rotatable=0;points=[[0,0.5],[1,0.5]];portConstraint=eastwest;" parent="CXDdSFIX0ZnYIhV8G9Mw-54" vertex="1"><mxGeometry y="68" width="600" height="52" as="geometry"/></mxCell><mxCell id="19" style="edgeStyle=orthogonalEdgeStyle;rounded=0;orthogonalLoop=1;jettySize=auto;html=1;entryX=0.733;entryY=0.981;entryDx=0;entryDy=0;entryPerimeter=0;" edge="1" parent="zuPwHXy1TFyjWQxAL-yT-1" source="CXDdSFIX0ZnYIhV8G9Mw-58" target="CXDdSFIX0ZnYIhV8G9Mw-57"><mxGeometry relative="1" as="geometry"/></mxCell><mxCell id="CXDdSFIX0ZnYIhV8G9Mw-58" value="JsonReader" style="swimlane;fontStyle=1;align=center;verticalAlign=top;childLayout=stackLayout;horizontal=1;startSize=26;horizontalStack=0;resizeParent=1;resizeParentMax=0;resizeLast=0;collapsible=1;marginBottom=0;fillColor=none;" parent="zuPwHXy1TFyjWQxAL-yT-1" vertex="1"><mxGeometry x="2470" y="1840" width="340" height="100" as="geometry"/></mxCell><mxCell id="CXDdSFIX0ZnYIhV8G9Mw-60" value="" style="line;strokeWidth=1;fillColor=none;align=left;verticalAlign=middle;spacingTop=-1;spacingLeft=3;spacingRight=3;rotatable=0;labelPosition=right;points=[];portConstraint=eastwest;" parent="CXDdSFIX0ZnYIhV8G9Mw-58" vertex="1"><mxGeometry y="26" width="340" height="8" as="geometry"/></mxCell><mxCell id="CXDdSFIX0ZnYIhV8G9Mw-61" value="+ readLeaderCarsd(String input) : ArrayList&lt;LeaderCard&gt;&#10;+ readRequest(String input) : ArrayList&lt;Request&gt;&#10;+ readSingleRequest(String input) : Request" style="text;strokeColor=none;fillColor=none;align=left;verticalAlign=top;spacingLeft=4;spacingRight=4;overflow=hidden;rotatable=0;points=[[0,0.5],[1,0.5]];portConstraint=eastwest;" parent="CXDdSFIX0ZnYIhV8G9Mw-58" vertex="1"><mxGeometry y="34" width="340" height="66" as="geometry"/></mxCell><mxCell id="WFDf0e7nfd22DvibQq_O-5" style="edgeStyle=orthogonalEdgeStyle;rounded=0;orthogonalLoop=1;jettySize=auto;html=1;entryX=0.505;entryY=1.006;entryDx=0;entryDy=0;entryPerimeter=0;" parent="zuPwHXy1TFyjWQxAL-yT-1" source="WFDf0e7nfd22DvibQq_O-2" target="UZ8g9i1Q12Po_Xgt0YLo-2" edge="1"><mxGeometry relative="1" as="geometry"><Array as="points"><mxPoint x="-726" y="2300"/><mxPoint x="431" y="2300"/><mxPoint x="431" y="2180"/><mxPoint x="431" y="2180"/></Array></mxGeometry></mxCell><mxCell id="WFDf0e7nfd22DvibQq_O-2" value="InitialPlayerSetRequest" style="swimlane;fontStyle=1;align=center;verticalAlign=top;childLayout=stackLayout;horizontal=1;startSize=26;horizontalStack=0;resizeParent=1;resizeParentMax=0;resizeLast=0;collapsible=1;marginBottom=0;" parent="zuPwHXy1TFyjWQxAL-yT-1" vertex="1"><mxGeometry x="-870" y="2400" width="288" height="104" as="geometry"/></mxCell><mxCell id="WFDf0e7nfd22DvibQq_O-3" value="- playerID : String&#10;- marketResources : ArrayList&lt;MarketResource&gt;&#10;- gameID : int&#10;" style="text;strokeColor=none;fillColor=none;align=left;verticalAlign=top;spacingLeft=4;spacingRight=4;overflow=hidden;rotatable=0;points=[[0,0.5],[1,0.5]];portConstraint=eastwest;" parent="WFDf0e7nfd22DvibQq_O-2" vertex="1"><mxGeometry y="26" width="288" height="54" as="geometry"/></mxCell><mxCell id="WFDf0e7nfd22DvibQq_O-4" value="" style="line;strokeWidth=1;fillColor=none;align=left;verticalAlign=middle;spacingTop=-1;spacingLeft=3;spacingRight=3;rotatable=0;labelPosition=right;points=[];portConstraint=eastwest;" parent="WFDf0e7nfd22DvibQq_O-2" vertex="1"><mxGeometry y="80" width="288" height="24" as="geometry"/></mxCell><mxCell id="WFDf0e7nfd22DvibQq_O-10" style="edgeStyle=orthogonalEdgeStyle;rounded=0;orthogonalLoop=1;jettySize=auto;html=1;entryX=0.503;entryY=1.011;entryDx=0;entryDy=0;entryPerimeter=0;" parent="zuPwHXy1TFyjWQxAL-yT-1" source="WFDf0e7nfd22DvibQq_O-6" target="UZ8g9i1Q12Po_Xgt0YLo-2" edge="1"><mxGeometry relative="1" as="geometry"><Array as="points"><mxPoint x="-1096" y="2300"/><mxPoint x="430" y="2300"/></Array></mxGeometry></mxCell><mxCell id="WFDf0e7nfd22DvibQq_O-6" value="JoinGameRequest" style="swimlane;fontStyle=1;align=center;verticalAlign=top;childLayout=stackLayout;horizontal=1;startSize=26;horizontalStack=0;resizeParent=1;resizeParentMax=0;resizeLast=0;collapsible=1;marginBottom=0;" parent="zuPwHXy1TFyjWQxAL-yT-1" vertex="1"><mxGeometry x="-1240" y="2400" width="288" height="104" as="geometry"/></mxCell><mxCell id="WFDf0e7nfd22DvibQq_O-7" value="- playerID : String&#10;- marketResources : ArrayList&lt;MarketResource&gt;&#10;- gameID : int&#10;" style="text;strokeColor=none;fillColor=none;align=left;verticalAlign=top;spacingLeft=4;spacingRight=4;overflow=hidden;rotatable=0;points=[[0,0.5],[1,0.5]];portConstraint=eastwest;" parent="WFDf0e7nfd22DvibQq_O-6" vertex="1"><mxGeometry y="26" width="288" height="54" as="geometry"/></mxCell><mxCell id="WFDf0e7nfd22DvibQq_O-8" value="" style="line;strokeWidth=1;fillColor=none;align=left;verticalAlign=middle;spacingTop=-1;spacingLeft=3;spacingRight=3;rotatable=0;labelPosition=right;points=[];portConstraint=eastwest;" parent="WFDf0e7nfd22DvibQq_O-6" vertex="1"><mxGeometry y="80" width="288" height="24" as="geometry"/></mxCell><mxCell id="WFDf0e7nfd22DvibQq_O-14" style="edgeStyle=orthogonalEdgeStyle;rounded=0;orthogonalLoop=1;jettySize=auto;html=1;entryX=0.505;entryY=1;entryDx=0;entryDy=0;entryPerimeter=0;" parent="zuPwHXy1TFyjWQxAL-yT-1" source="WFDf0e7nfd22DvibQq_O-11" target="UZ8g9i1Q12Po_Xgt0YLo-2" edge="1"><mxGeometry relative="1" as="geometry"><Array as="points"><mxPoint x="-1446" y="2300"/><mxPoint x="431" y="2300"/><mxPoint x="431" y="2180"/><mxPoint x="431" y="2180"/></Array></mxGeometry></mxCell><mxCell id="WFDf0e7nfd22DvibQq_O-11" value="NewGameRequest" style="swimlane;fontStyle=1;align=center;verticalAlign=top;childLayout=stackLayout;horizontal=1;startSize=26;horizontalStack=0;resizeParent=1;resizeParentMax=0;resizeLast=0;collapsible=1;marginBottom=0;" parent="zuPwHXy1TFyjWQxAL-yT-1" vertex="1"><mxGeometry x="-1590" y="2400" width="288" height="94" as="geometry"/></mxCell><mxCell id="WFDf0e7nfd22DvibQq_O-12" value="- playerID : String&#10;- players : int&#10;" style="text;strokeColor=none;fillColor=none;align=left;verticalAlign=top;spacingLeft=4;spacingRight=4;overflow=hidden;rotatable=0;points=[[0,0.5],[1,0.5]];portConstraint=eastwest;" parent="WFDf0e7nfd22DvibQq_O-11" vertex="1"><mxGeometry y="26" width="288" height="44" as="geometry"/></mxCell><mxCell id="WFDf0e7nfd22DvibQq_O-13" value="" style="line;strokeWidth=1;fillColor=none;align=left;verticalAlign=middle;spacingTop=-1;spacingLeft=3;spacingRight=3;rotatable=0;labelPosition=right;points=[];portConstraint=eastwest;" parent="WFDf0e7nfd22DvibQq_O-11" vertex="1"><mxGeometry y="70" width="288" height="24" as="geometry"/></mxCell><mxCell id="WFDf0e7nfd22DvibQq_O-16" style="edgeStyle=orthogonalEdgeStyle;rounded=0;orthogonalLoop=1;jettySize=auto;html=1;entryX=0.75;entryY=0;entryDx=0;entryDy=0;" parent="zuPwHXy1TFyjWQxAL-yT-1" source="zuPwHXy1TFyjWQxAL-yT-18" target="UZ8g9i1Q12Po_Xgt0YLo-0" edge="1"><mxGeometry relative="1" as="geometry"><mxPoint x="590" y="1930" as="targetPoint"/><Array as="points"><mxPoint x="750" y="1672"/><mxPoint x="750" y="1810"/><mxPoint x="530" y="1810"/><mxPoint x="530" y="2002"/></Array></mxGeometry></mxCell><mxCell id="1" value="Extends" style="endArrow=block;endSize=16;endFill=0;html=1;exitX=-0.002;exitY=0.271;exitDx=0;exitDy=0;exitPerimeter=0;entryX=0.998;entryY=0.584;entryDx=0;entryDy=0;entryPerimeter=0;" parent="zuPwHXy1TFyjWQxAL-yT-1" source="zuPwHXy1TFyjWQxAL-yT-18" target="zuPwHXy1TFyjWQxAL-yT-7" edge="1"><mxGeometry width="160" relative="1" as="geometry"><mxPoint x="825" y="1657" as="sourcePoint"/><mxPoint x="679" y="1638" as="targetPoint"/></mxGeometry></mxCell><mxCell id="2" value="CONTROLLER" style="shape=umlFrame;whiteSpace=wrap;html=1;width=126;height=30;" vertex="1" parent="zuPwHXy1TFyjWQxAL-yT-1"><mxGeometry x="-1690" y="1230" width="3106" height="1610" as="geometry"/></mxCell><mxCell id="9" style="edgeStyle=orthogonalEdgeStyle;rounded=0;orthogonalLoop=1;jettySize=auto;html=1;" edge="1" parent="zuPwHXy1TFyjWQxAL-yT-1" source="5" target="CXDdSFIX0ZnYIhV8G9Mw-50"><mxGeometry relative="1" as="geometry"/></mxCell><mxCell id="5" value="PingConnection" style="swimlane;fontStyle=1;align=center;verticalAlign=top;childLayout=stackLayout;horizontal=1;startSize=26;horizontalStack=0;resizeParent=1;resizeParentMax=0;resizeLast=0;collapsible=1;marginBottom=0;fillColor=none;" vertex="1" parent="zuPwHXy1TFyjWQxAL-yT-1"><mxGeometry x="1930" y="1840" width="160" height="60" as="geometry"/></mxCell><mxCell id="7" value="" style="line;strokeWidth=1;fillColor=none;align=left;verticalAlign=middle;spacingTop=-1;spacingLeft=3;spacingRight=3;rotatable=0;labelPosition=right;points=[];portConstraint=eastwest;" vertex="1" parent="5"><mxGeometry y="26" width="160" height="8" as="geometry"/></mxCell><mxCell id="8" value="+ run() : void" style="text;strokeColor=none;fillColor=none;align=left;verticalAlign=top;spacingLeft=4;spacingRight=4;overflow=hidden;rotatable=0;points=[[0,0.5],[1,0.5]];portConstraint=eastwest;" vertex="1" parent="5"><mxGeometry y="34" width="160" height="26" as="geometry"/></mxCell><mxCell id="24" style="edgeStyle=orthogonalEdgeStyle;rounded=0;orthogonalLoop=1;jettySize=auto;html=1;" edge="1" parent="zuPwHXy1TFyjWQxAL-yT-1" source="11" target="20"><mxGeometry relative="1" as="geometry"/></mxCell><mxCell id="11" value="MultiEchoServer" style="swimlane;fontStyle=1;align=center;verticalAlign=top;childLayout=stackLayout;horizontal=1;startSize=26;horizontalStack=0;resizeParent=1;resizeParentMax=0;resizeLast=0;collapsible=1;marginBottom=0;fillColor=none;" vertex="1" parent="zuPwHXy1TFyjWQxAL-yT-1"><mxGeometry x="2140" y="2003" width="260" height="114" as="geometry"/></mxCell><mxCell id="12" value="- port : int&#10;- clients : ArrayList&lt;ClientHandler&gt;&#10;- games : ArrayList&lt;Game&gt;" style="text;strokeColor=none;fillColor=none;align=left;verticalAlign=top;spacingLeft=4;spacingRight=4;overflow=hidden;rotatable=0;points=[[0,0.5],[1,0.5]];portConstraint=eastwest;" vertex="1" parent="11"><mxGeometry y="26" width="260" height="54" as="geometry"/></mxCell><mxCell id="13" value="" style="line;strokeWidth=1;fillColor=none;align=left;verticalAlign=middle;spacingTop=-1;spacingLeft=3;spacingRight=3;rotatable=0;labelPosition=right;points=[];portConstraint=eastwest;" vertex="1" parent="11"><mxGeometry y="80" width="260" height="8" as="geometry"/></mxCell><mxCell id="14" value="+ startServer() : void" style="text;strokeColor=none;fillColor=none;align=left;verticalAlign=top;spacingLeft=4;spacingRight=4;overflow=hidden;rotatable=0;points=[[0,0.5],[1,0.5]];portConstraint=eastwest;" vertex="1" parent="11"><mxGeometry y="88" width="260" height="26" as="geometry"/></mxCell><mxCell id="15" style="edgeStyle=orthogonalEdgeStyle;rounded=0;orthogonalLoop=1;jettySize=auto;html=1;" edge="1" parent="zuPwHXy1TFyjWQxAL-yT-1" source="16" target="11"><mxGeometry relative="1" as="geometry"/></mxCell><mxCell id="16" value="Server" style="swimlane;fontStyle=1;align=center;verticalAlign=top;childLayout=stackLayout;horizontal=1;startSize=26;horizontalStack=0;resizeParent=1;resizeParentMax=0;resizeLast=0;collapsible=1;marginBottom=0;fillColor=none;" vertex="1" parent="zuPwHXy1TFyjWQxAL-yT-1"><mxGeometry x="2210" y="1830" width="120" height="70" as="geometry"/></mxCell><mxCell id="17" value="" style="line;strokeWidth=1;fillColor=none;align=left;verticalAlign=middle;spacingTop=-1;spacingLeft=3;spacingRight=3;rotatable=0;labelPosition=right;points=[];portConstraint=eastwest;" vertex="1" parent="16"><mxGeometry y="26" width="120" height="8" as="geometry"/></mxCell><mxCell id="18" value="+ main()" style="text;strokeColor=none;fillColor=none;align=left;verticalAlign=top;spacingLeft=4;spacingRight=4;overflow=hidden;rotatable=0;points=[[0,0.5],[1,0.5]];portConstraint=eastwest;" vertex="1" parent="16"><mxGeometry y="34" width="120" height="36" as="geometry"/></mxCell><mxCell id="20" value="GameHolder" style="swimlane;fontStyle=1;align=center;verticalAlign=top;childLayout=stackLayout;horizontal=1;startSize=26;horizontalStack=0;resizeParent=1;resizeParentMax=0;resizeLast=0;collapsible=1;marginBottom=0;fillColor=none;" vertex="1" parent="zuPwHXy1TFyjWQxAL-yT-1"><mxGeometry x="2490" y="2013" width="360" height="94" as="geometry"/></mxCell><mxCell id="21" value="- games : ArrayList&lt;Game&gt;" style="text;strokeColor=none;fillColor=none;align=left;verticalAlign=top;spacingLeft=4;spacingRight=4;overflow=hidden;rotatable=0;points=[[0,0.5],[1,0.5]];portConstraint=eastwest;" vertex="1" parent="20"><mxGeometry y="26" width="360" height="34" as="geometry"/></mxCell><mxCell id="22" value="" style="line;strokeWidth=1;fillColor=none;align=left;verticalAlign=middle;spacingTop=-1;spacingLeft=3;spacingRight=3;rotatable=0;labelPosition=right;points=[];portConstraint=eastwest;" vertex="1" parent="20"><mxGeometry y="60" width="360" height="8" as="geometry"/></mxCell><mxCell id="23" value="+ add(Request request, ClientHandle clientHandler) : void" style="text;strokeColor=none;fillColor=none;align=left;verticalAlign=top;spacingLeft=4;spacingRight=4;overflow=hidden;rotatable=0;points=[[0,0.5],[1,0.5]];portConstraint=eastwest;" vertex="1" parent="20"><mxGeometry y="68" width="360" height="26" as="geometry"/></mxCell></root></mxGraphModel></diagram></mxfile>